<svg width="268" height="100" viewBox="0 0 268 100" fill="none" xmlns="http://www.w3.org/2000/svg">
<rect width="100" height="100" rx="32" fill="#2563EB"/>
<g clip-path="url(#clip0_1674_27)">
<path d="M66.0569 33.0702L70.7485 60.6744M66.0569 33.0702C68.5978 32.6383 70.3075 30.2285 69.8756 27.6876C69.4438 25.1467 67.034 23.437 64.493 23.8688C61.952 24.3007 60.2424 26.7106 60.6743 29.2515M66.0569 33.0702C63.5159 33.5021 61.1061 31.7923 60.6743 29.2515M70.7485 60.6744C68.2075 61.1062 66.4979 63.516 66.9297 66.057M70.7485 60.6744C73.2895 60.2425 75.6993 61.9521 76.1311 64.4931C76.563 67.0341 74.8533 69.4439 72.3124 69.8757C69.7714 70.3076 67.3616 68.5979 66.9297 66.057M60.6743 29.2515L33.0701 33.9431M33.0701 33.9431C33.502 36.484 31.7922 38.8938 29.2514 39.3257M33.0701 33.9431C32.6383 31.4022 30.2284 29.6925 27.6875 30.1243C25.1466 30.5562 23.4369 32.966 23.8687 35.5069C24.3006 38.0478 26.7105 39.7575 29.2514 39.3257M66.9297 66.057L39.3256 70.7486M39.3256 70.7486C39.7575 73.2896 38.0477 75.6994 35.5068 76.1312C32.9659 76.5631 30.5561 74.8534 30.1242 72.3125C29.6923 69.7715 31.4021 67.3617 33.943 66.9298M39.3256 70.7486C38.8937 68.2076 36.4839 66.498 33.943 66.9298M33.943 66.9298L29.2514 39.3257" stroke="white" stroke-width="4" stroke-linecap="round" stroke-linejoin="round"/>
</g>
<path d="M262.753 71.184C263.057 71.9359 263.297 72.6609 263.475 73.359L245.227 80.7314C246.249 82.05 247.531 82.9054 249.071 83.2976C250.611 83.6898 252.231 83.5426 253.93 82.8561C255.299 82.3032 256.445 81.5253 257.369 80.5222C258.287 79.5041 258.907 78.4404 259.228 77.331L264.665 79.2275C264.018 81.2205 262.937 83.0041 261.422 84.5784C259.921 86.1466 258.081 87.3712 255.901 88.2522C253.435 89.2485 250.983 89.6094 248.545 89.3347C246.108 89.0601 243.943 88.2033 242.049 86.7642C240.15 85.3102 238.733 83.4253 237.797 81.1096C236.874 78.8239 236.577 76.5301 236.906 74.228C237.244 71.9049 238.152 69.8237 239.631 67.9845C241.124 66.1392 243.036 64.7457 245.367 63.8041C248.901 62.3763 252.325 62.366 255.64 63.773C258.948 65.1649 261.319 67.6353 262.753 71.184ZM251.795 68.8684C250.354 68.4187 248.904 68.4884 247.445 69.0778C245.987 69.6671 244.895 70.624 244.171 71.9487C243.441 73.2582 243.185 74.7258 243.405 76.3513L255.427 71.494C254.456 70.1723 253.245 69.2971 251.795 68.8684Z" fill="#222222"/>
<path d="M223.16 62.8628C226.03 62.8628 228.325 63.7224 230.044 65.4415C231.779 67.1606 232.647 69.4554 232.647 72.326V88.8685H226.152V74.2722C226.152 72.7153 225.698 71.4746 224.789 70.5502C223.897 69.6095 222.697 69.1392 221.189 69.1392C219.6 69.1392 218.31 69.6176 217.321 70.5745C216.332 71.5313 215.837 72.7964 215.837 74.3695V88.8685H209.366V74.2722C209.366 72.7315 208.904 71.4908 207.979 70.5502C207.071 69.6095 205.855 69.1392 204.33 69.1392C202.757 69.1392 201.476 69.6257 200.487 70.5988C199.497 71.5557 199.003 72.8126 199.003 74.3695V88.8685H192.532V63.471H199.003V66.0983C200.916 63.9413 203.422 62.8628 206.52 62.8628C208.288 62.8628 209.853 63.2277 211.215 63.9575C212.593 64.6711 213.688 65.6847 214.499 66.9984C216.591 64.2413 219.478 62.8628 223.16 62.8628Z" fill="#222222"/>
<path d="M179.906 63.471H186.377V88.8685H179.906V85.8276C177.684 88.2603 174.927 89.4766 171.635 89.4766C168.099 89.4766 165.148 88.2035 162.78 85.6573C160.412 83.111 159.228 79.9485 159.228 76.1697C159.228 72.3909 160.412 69.2284 162.78 66.6821C165.148 64.1359 168.099 62.8628 171.635 62.8628C174.943 62.8628 177.7 64.071 179.906 66.4875V63.471ZM172.876 83.2002C174.887 83.2002 176.557 82.5272 177.887 81.1811C179.233 79.835 179.906 78.1645 179.906 76.1697C179.906 74.1749 179.233 72.5044 177.887 71.1583C176.557 69.8122 174.887 69.1392 172.876 69.1392C170.881 69.1392 169.218 69.8122 167.888 71.1583C166.559 72.5044 165.894 74.1749 165.894 76.1697C165.894 78.1645 166.559 79.835 167.888 81.1811C169.218 82.5272 170.881 83.2002 172.876 83.2002Z" fill="#222222"/>
<path d="M156.406 63.0571H157.501V69.7471H156.406C154.103 69.7471 152.303 70.3796 151.005 71.6446C149.724 72.9096 149.084 74.6287 149.084 76.8019V88.8682H142.613V63.4707H149.084V66.7548C151.03 64.2897 153.471 63.0571 156.406 63.0571Z" fill="#222222"/>
<path d="M138.574 60.9651H123.078V68.7012H136.579V75.1722H123.078V88.8683H116.193V54.4941H138.574V60.9651Z" fill="#222222"/>
<path d="M256.959 49.3711V11.9199H263.713V49.3711H256.959Z" fill="#2563EB"/>
<path d="M243.781 22.8633H250.535V49.3711H243.781V46.1973C241.462 48.7363 238.585 50.0059 235.148 50.0059C231.458 50.0059 228.378 48.6771 225.906 46.0195C223.435 43.362 222.199 40.0612 222.199 36.1172C222.199 32.1732 223.435 28.8724 225.906 26.2148C228.378 23.5573 231.458 22.2285 235.148 22.2285C238.602 22.2285 241.479 23.4896 243.781 26.0117V22.8633ZM236.443 43.4551C238.542 43.4551 240.286 42.7526 241.674 41.3477C243.079 39.9427 243.781 38.1992 243.781 36.1172C243.781 34.0352 243.079 32.2917 241.674 30.8867C240.286 29.4818 238.542 28.7793 236.443 28.7793C234.361 28.7793 232.626 29.4818 231.238 30.8867C229.85 32.2917 229.156 34.0352 229.156 36.1172C229.156 38.1992 229.85 39.9427 231.238 41.3477C232.626 42.7526 234.361 43.4551 236.443 43.4551Z" fill="#2563EB"/>
<path d="M216.893 17.7344C216.08 18.5469 215.073 18.9531 213.871 18.9531C212.669 18.9531 211.654 18.5469 210.824 17.7344C210.012 16.9219 209.605 15.9232 209.605 14.7383C209.605 13.5534 210.012 12.5547 210.824 11.7422C211.654 10.9297 212.669 10.5234 213.871 10.5234C215.073 10.5234 216.08 10.9297 216.893 11.7422C217.722 12.5547 218.137 13.5534 218.137 14.7383C218.137 15.9232 217.722 16.9219 216.893 17.7344ZM210.494 49.3711V22.8633H217.248V49.3711H210.494Z" fill="#2563EB"/>
<path d="M199.22 48.6094C195.469 50.1249 191.824 50.1643 188.286 48.7275C184.764 47.2844 182.264 44.7344 180.786 41.0775C179.309 37.4207 179.336 33.8498 180.867 30.3649C182.414 26.8736 185.063 24.3702 188.814 22.8547C191.262 21.8655 193.697 21.5208 196.119 21.8204C198.556 22.1137 200.72 22.9738 202.611 24.4006L198.471 29.8795C197.5 29.1034 196.376 28.6263 195.1 28.4485C193.832 28.2485 192.555 28.4086 191.268 28.9285C189.338 29.7085 187.992 31.0097 187.231 32.8323C186.471 34.6549 186.48 36.5315 187.26 38.4619C188.04 40.3923 189.337 41.7489 191.15 42.5315C192.963 43.3142 194.835 43.3156 196.766 42.5357C198.037 42.022 199.07 41.2578 199.865 40.2429C200.653 39.2123 201.124 38.0728 201.277 36.8244L208.061 37.89C207.698 40.2456 206.742 42.3754 205.193 44.2793C203.659 46.1769 201.668 47.6202 199.22 48.6094Z" fill="#2563EB"/>
<path d="M172.51 46.0195C169.785 48.6771 166.399 50.0059 162.354 50.0059C158.308 50.0059 154.914 48.6771 152.172 46.0195C149.447 43.362 148.084 40.0612 148.084 36.1172C148.084 32.1732 149.447 28.8724 152.172 26.2148C154.914 23.5573 158.308 22.2285 162.354 22.2285C166.399 22.2285 169.785 23.5573 172.51 26.2148C175.235 28.8724 176.598 32.1732 176.598 36.1172C176.598 40.0612 175.235 43.362 172.51 46.0195ZM162.354 43.4551C164.452 43.4551 166.188 42.7611 167.559 41.373C168.93 39.9681 169.615 38.2161 169.615 36.1172C169.615 34.0182 168.93 32.2747 167.559 30.8867C166.188 29.4818 164.452 28.7793 162.354 28.7793C160.271 28.7793 158.536 29.4818 157.148 30.8867C155.76 32.2917 155.066 34.0352 155.066 36.1172C155.066 38.1992 155.76 39.9427 157.148 41.3477C158.536 42.7526 160.271 43.4551 162.354 43.4551Z" fill="#2563EB"/>
<path d="M131.123 50.0059C128.398 50.0059 125.681 49.498 122.973 48.4824C120.281 47.4499 118.021 46.0788 116.193 44.3691L119.9 38.9102C121.39 40.332 123.133 41.4746 125.131 42.3379C127.145 43.1842 129.143 43.6074 131.123 43.6074C132.951 43.6074 134.508 43.2181 135.795 42.4395C137.081 41.6608 137.725 40.6621 137.725 39.4434C137.725 39.0202 137.632 38.6309 137.445 38.2754C137.276 37.903 137.081 37.5898 136.861 37.3359C136.641 37.0651 136.286 36.8027 135.795 36.5488C135.321 36.278 134.915 36.0749 134.576 35.9395C134.255 35.7871 133.755 35.6094 133.078 35.4062C132.418 35.2031 131.919 35.0677 131.58 35C131.258 34.9154 130.725 34.7799 129.98 34.5938C128.559 34.2552 127.247 33.8659 126.045 33.4258C124.843 32.9857 123.701 32.444 122.617 31.8008C121.551 31.1406 120.645 30.4128 119.9 29.6172C119.156 28.8216 118.563 27.8991 118.123 26.8496C117.7 25.7832 117.488 24.6406 117.488 23.4219C117.488 20.2396 118.749 17.6836 121.271 15.7539C123.794 13.8242 127.077 12.8594 131.123 12.8594C133.713 12.8594 136.083 13.2656 138.232 14.0781C140.399 14.8906 142.168 15.974 143.539 17.3281L140.213 22.7363C139.163 21.7207 137.801 20.8913 136.125 20.248C134.466 19.5879 132.765 19.2578 131.021 19.2578C129.227 19.2578 127.755 19.6217 126.604 20.3496C125.452 21.0775 124.877 22 124.877 23.1172C124.877 23.7773 125.08 24.3698 125.486 24.8945C125.893 25.4193 126.468 25.8678 127.213 26.2402C127.958 26.5957 128.694 26.8919 129.422 27.1289C130.15 27.349 130.996 27.569 131.961 27.7891C132.587 27.9245 133.18 28.0684 133.738 28.2207C134.314 28.3561 135.067 28.5846 135.998 28.9062C136.929 29.2279 137.775 29.5833 138.537 29.9727C139.316 30.3451 140.128 30.8359 140.975 31.4453C141.821 32.0547 142.532 32.7148 143.107 33.4258C143.683 34.1198 144.157 34.9661 144.529 35.9648C144.919 36.9466 145.113 38.0046 145.113 39.1387C145.113 41.2376 144.495 43.125 143.26 44.8008C142.024 46.4596 140.34 47.7461 138.207 48.6602C136.091 49.5573 133.73 50.0059 131.123 50.0059Z" fill="#2563EB"/>
<defs>
<clipPath id="clip0_1674_27">
<rect width="56" height="56" fill="white" transform="translate(17.7042 27.0874) rotate(-9.64584)"/>
</clipPath>
</defs>
</svg>
